<svg xmlns="http://www.w3.org/2000/svg" version="1.1" xmlns:xlink="http://www.w3.org/1999/xlink" xmlns:svgjs="http://svgjs.com/svgjs" width="1440" height="3000" preserveAspectRatio="none" viewBox="0 0 1440 3000"><g mask="url(&quot;#SvgjsMask1017&quot;)" fill="none"><rect width="1440" height="3000" x="0" y="0" fill="#0e2a47"></rect><path d="M88.57 199.29L172.58 247.79L172.58 344.79L88.57 393.29L4.56 344.79L4.56 247.79zM172.58 635.79L256.58 684.29L256.58 781.29L172.58 829.79L88.57 781.29L88.57 684.29zM172.58 2672.79L256.58 2721.29L256.58 2818.29L172.58 2866.79L88.57 2818.29L88.57 2721.29zM256.58 2818.29L340.59 2866.79L340.59 2963.79L256.58 3012.29L172.58 2963.79L172.58 2866.79zM424.6 1072.29L508.6 1120.79L508.6 1217.79L424.6 1266.29L340.59 1217.79L340.59 1120.79zM508.6 1508.79L592.61 1557.29L592.61 1654.29L508.6 1702.79L424.6 1654.29L424.6 1557.29zM508.6 1799.79L592.61 1848.29L592.61 1945.29L508.6 1993.79L424.6 1945.29L424.6 1848.29zM676.62 926.79L760.62 975.29L760.62 1072.29L676.62 1120.79L592.61 1072.29L592.61 975.29zM592.61 1654.29L676.62 1702.79L676.62 1799.79L592.61 1848.29L508.6 1799.79L508.6 1702.79zM592.61 1945.29L676.62 1993.79L676.62 2090.79L592.61 2139.29L508.6 2090.79L508.6 1993.79zM676.62 2381.79L760.62 2430.29L760.62 2527.29L676.62 2575.79L592.61 2527.29L592.61 2430.29zM760.62 490.29L844.63 538.79L844.63 635.79L760.62 684.29L676.62 635.79L676.62 538.79zM844.63 1799.79L928.64 1848.29L928.64 1945.29L844.63 1993.79L760.62 1945.29L760.62 1848.29zM760.62 2236.29L844.63 2284.79L844.63 2381.79L760.62 2430.29L676.62 2381.79L676.62 2284.79zM928.64 -91.71L1012.65 -43.21L1012.65 53.79L928.64 102.29L844.63 53.79L844.63 -43.21zM928.64 1363.29L1012.65 1411.79L1012.65 1508.79L928.64 1557.29L844.63 1508.79L844.63 1411.79zM928.64 2236.29L1012.65 2284.79L1012.65 2381.79L928.64 2430.29L844.63 2381.79L844.63 2284.79zM1096.65 781.29L1180.66 829.79L1180.66 926.79L1096.65 975.29L1012.65 926.79L1012.65 829.79zM1264.67 2527.29L1348.67 2575.79L1348.67 2672.79L1264.67 2721.29L1180.66 2672.79L1180.66 2575.79zM1348.67 2672.79L1432.68 2721.29L1432.68 2818.29L1348.67 2866.79L1264.67 2818.29L1264.67 2721.29zM1516.69 635.79L1600.69 684.29L1600.69 781.29L1516.69 829.79L1432.68 781.29L1432.68 684.29zM1432.68 781.29L1516.69 829.79L1516.69 926.79L1432.68 975.29L1348.67 926.79L1348.67 829.79zM1516.69 926.79L1600.69 975.29L1600.69 1072.29L1516.69 1120.79L1432.68 1072.29L1432.68 975.29z" stroke="rgba(13, 66, 150, 1)" stroke-width="2"></path><path d="M78.87 199.29 a9.7 9.7 0 1 0 19.4 0 a9.7 9.7 0 1 0 -19.4 0zM162.88 247.79 a9.7 9.7 0 1 0 19.4 0 a9.7 9.7 0 1 0 -19.4 0zM162.88 344.79 a9.7 9.7 0 1 0 19.4 0 a9.7 9.7 0 1 0 -19.4 0zM78.87 393.29 a9.7 9.7 0 1 0 19.4 0 a9.7 9.7 0 1 0 -19.4 0zM-5.14 344.79 a9.7 9.7 0 1 0 19.4 0 a9.7 9.7 0 1 0 -19.4 0zM-5.14 247.79 a9.7 9.7 0 1 0 19.4 0 a9.7 9.7 0 1 0 -19.4 0zM162.88 635.79 a9.7 9.7 0 1 0 19.4 0 a9.7 9.7 0 1 0 -19.4 0zM246.88 684.29 a9.7 9.7 0 1 0 19.4 0 a9.7 9.7 0 1 0 -19.4 0zM246.88 781.29 a9.7 9.7 0 1 0 19.4 0 a9.7 9.7 0 1 0 -19.4 0zM162.88 829.79 a9.7 9.7 0 1 0 19.4 0 a9.7 9.7 0 1 0 -19.4 0zM78.87 781.29 a9.7 9.7 0 1 0 19.4 0 a9.7 9.7 0 1 0 -19.4 0zM78.87 684.29 a9.7 9.7 0 1 0 19.4 0 a9.7 9.7 0 1 0 -19.4 0zM162.88 2672.79 a9.7 9.7 0 1 0 19.4 0 a9.7 9.7 0 1 0 -19.4 0zM246.88 2721.29 a9.7 9.7 0 1 0 19.4 0 a9.7 9.7 0 1 0 -19.4 0zM246.88 2818.29 a9.7 9.7 0 1 0 19.4 0 a9.7 9.7 0 1 0 -19.4 0zM162.88 2866.79 a9.7 9.7 0 1 0 19.4 0 a9.7 9.7 0 1 0 -19.4 0zM78.87 2818.29 a9.7 9.7 0 1 0 19.4 0 a9.7 9.7 0 1 0 -19.4 0zM78.87 2721.29 a9.7 9.7 0 1 0 19.4 0 a9.7 9.7 0 1 0 -19.4 0zM330.89 2866.79 a9.7 9.7 0 1 0 19.4 0 a9.7 9.7 0 1 0 -19.4 0zM330.89 2963.79 a9.7 9.7 0 1 0 19.4 0 a9.7 9.7 0 1 0 -19.4 0zM246.88 3012.29 a9.7 9.7 0 1 0 19.4 0 a9.7 9.7 0 1 0 -19.4 0zM162.88 2963.79 a9.7 9.7 0 1 0 19.4 0 a9.7 9.7 0 1 0 -19.4 0zM414.9 1072.29 a9.7 9.7 0 1 0 19.4 0 a9.7 9.7 0 1 0 -19.4 0zM498.9 1120.79 a9.7 9.7 0 1 0 19.4 0 a9.7 9.7 0 1 0 -19.4 0zM498.9 1217.79 a9.7 9.7 0 1 0 19.4 0 a9.7 9.7 0 1 0 -19.4 0zM414.9 1266.29 a9.7 9.7 0 1 0 19.4 0 a9.7 9.7 0 1 0 -19.4 0zM330.89 1217.79 a9.7 9.7 0 1 0 19.4 0 a9.7 9.7 0 1 0 -19.4 0zM330.89 1120.79 a9.7 9.7 0 1 0 19.4 0 a9.7 9.7 0 1 0 -19.4 0zM498.9 1508.79 a9.7 9.7 0 1 0 19.4 0 a9.7 9.7 0 1 0 -19.4 0zM582.91 1557.29 a9.7 9.7 0 1 0 19.4 0 a9.7 9.7 0 1 0 -19.4 0zM582.91 1654.29 a9.7 9.7 0 1 0 19.4 0 a9.7 9.7 0 1 0 -19.4 0zM498.9 1702.79 a9.7 9.7 0 1 0 19.4 0 a9.7 9.7 0 1 0 -19.4 0zM414.9 1654.29 a9.7 9.7 0 1 0 19.4 0 a9.7 9.7 0 1 0 -19.4 0zM414.9 1557.29 a9.7 9.7 0 1 0 19.4 0 a9.7 9.7 0 1 0 -19.4 0zM498.9 1799.79 a9.7 9.7 0 1 0 19.4 0 a9.7 9.7 0 1 0 -19.4 0zM582.91 1848.29 a9.7 9.7 0 1 0 19.4 0 a9.7 9.7 0 1 0 -19.4 0zM582.91 1945.29 a9.7 9.7 0 1 0 19.4 0 a9.7 9.7 0 1 0 -19.4 0zM498.9 1993.79 a9.7 9.7 0 1 0 19.4 0 a9.7 9.7 0 1 0 -19.4 0zM414.9 1945.29 a9.7 9.7 0 1 0 19.4 0 a9.7 9.7 0 1 0 -19.4 0zM414.9 1848.29 a9.7 9.7 0 1 0 19.4 0 a9.7 9.7 0 1 0 -19.4 0zM666.92 926.79 a9.7 9.7 0 1 0 19.4 0 a9.7 9.7 0 1 0 -19.4 0zM750.92 975.29 a9.7 9.7 0 1 0 19.4 0 a9.7 9.7 0 1 0 -19.4 0zM750.92 1072.29 a9.7 9.7 0 1 0 19.4 0 a9.7 9.7 0 1 0 -19.4 0zM666.92 1120.79 a9.7 9.7 0 1 0 19.4 0 a9.7 9.7 0 1 0 -19.4 0zM582.91 1072.29 a9.7 9.7 0 1 0 19.4 0 a9.7 9.7 0 1 0 -19.4 0zM582.91 975.29 a9.7 9.7 0 1 0 19.4 0 a9.7 9.7 0 1 0 -19.4 0zM666.92 1702.79 a9.7 9.7 0 1 0 19.4 0 a9.7 9.7 0 1 0 -19.4 0zM666.92 1799.79 a9.7 9.7 0 1 0 19.4 0 a9.7 9.7 0 1 0 -19.4 0zM666.92 1993.79 a9.7 9.7 0 1 0 19.4 0 a9.7 9.7 0 1 0 -19.4 0zM666.92 2090.79 a9.7 9.7 0 1 0 19.4 0 a9.7 9.7 0 1 0 -19.4 0zM582.91 2139.29 a9.7 9.7 0 1 0 19.4 0 a9.7 9.7 0 1 0 -19.4 0zM498.9 2090.79 a9.7 9.7 0 1 0 19.4 0 a9.7 9.7 0 1 0 -19.4 0zM666.92 2381.79 a9.7 9.7 0 1 0 19.4 0 a9.7 9.7 0 1 0 -19.4 0zM750.92 2430.29 a9.7 9.7 0 1 0 19.4 0 a9.7 9.7 0 1 0 -19.4 0zM750.92 2527.29 a9.7 9.7 0 1 0 19.4 0 a9.7 9.7 0 1 0 -19.4 0zM666.92 2575.79 a9.7 9.7 0 1 0 19.4 0 a9.7 9.7 0 1 0 -19.4 0zM582.91 2527.29 a9.7 9.7 0 1 0 19.4 0 a9.7 9.7 0 1 0 -19.4 0zM582.91 2430.29 a9.7 9.7 0 1 0 19.4 0 a9.7 9.7 0 1 0 -19.4 0zM750.92 490.29 a9.7 9.7 0 1 0 19.4 0 a9.7 9.7 0 1 0 -19.4 0zM834.93 538.79 a9.7 9.7 0 1 0 19.4 0 a9.7 9.7 0 1 0 -19.4 0zM834.93 635.79 a9.7 9.7 0 1 0 19.4 0 a9.7 9.7 0 1 0 -19.4 0zM750.92 684.29 a9.7 9.7 0 1 0 19.4 0 a9.7 9.7 0 1 0 -19.4 0zM666.92 635.79 a9.7 9.7 0 1 0 19.4 0 a9.7 9.7 0 1 0 -19.4 0zM666.92 538.79 a9.7 9.7 0 1 0 19.4 0 a9.7 9.7 0 1 0 -19.4 0zM834.93 1799.79 a9.7 9.7 0 1 0 19.4 0 a9.7 9.7 0 1 0 -19.4 0zM918.94 1848.29 a9.7 9.7 0 1 0 19.4 0 a9.7 9.7 0 1 0 -19.4 0zM918.94 1945.29 a9.7 9.7 0 1 0 19.4 0 a9.7 9.7 0 1 0 -19.4 0zM834.93 1993.79 a9.7 9.7 0 1 0 19.4 0 a9.7 9.7 0 1 0 -19.4 0zM750.92 1945.29 a9.7 9.7 0 1 0 19.4 0 a9.7 9.7 0 1 0 -19.4 0zM750.92 1848.29 a9.7 9.7 0 1 0 19.4 0 a9.7 9.7 0 1 0 -19.4 0zM750.92 2236.29 a9.7 9.7 0 1 0 19.4 0 a9.7 9.7 0 1 0 -19.4 0zM834.93 2284.79 a9.7 9.7 0 1 0 19.4 0 a9.7 9.7 0 1 0 -19.4 0zM834.93 2381.79 a9.7 9.7 0 1 0 19.4 0 a9.7 9.7 0 1 0 -19.4 0zM666.92 2284.79 a9.7 9.7 0 1 0 19.4 0 a9.7 9.7 0 1 0 -19.4 0zM918.94 -91.71 a9.7 9.7 0 1 0 19.4 0 a9.7 9.7 0 1 0 -19.4 0zM1002.95 -43.21 a9.7 9.7 0 1 0 19.4 0 a9.7 9.7 0 1 0 -19.4 0zM1002.95 53.79 a9.7 9.7 0 1 0 19.4 0 a9.7 9.7 0 1 0 -19.4 0zM918.94 102.29 a9.7 9.7 0 1 0 19.4 0 a9.7 9.7 0 1 0 -19.4 0zM834.93 53.79 a9.7 9.7 0 1 0 19.4 0 a9.7 9.7 0 1 0 -19.4 0zM834.93 -43.21 a9.7 9.7 0 1 0 19.4 0 a9.7 9.7 0 1 0 -19.4 0zM918.94 1363.29 a9.7 9.7 0 1 0 19.4 0 a9.7 9.7 0 1 0 -19.4 0zM1002.95 1411.79 a9.7 9.7 0 1 0 19.4 0 a9.7 9.7 0 1 0 -19.4 0zM1002.95 1508.79 a9.7 9.7 0 1 0 19.4 0 a9.7 9.7 0 1 0 -19.4 0zM918.94 1557.29 a9.7 9.7 0 1 0 19.4 0 a9.7 9.7 0 1 0 -19.4 0zM834.93 1508.79 a9.7 9.7 0 1 0 19.4 0 a9.7 9.7 0 1 0 -19.4 0zM834.93 1411.79 a9.7 9.7 0 1 0 19.4 0 a9.7 9.7 0 1 0 -19.4 0zM918.94 2236.29 a9.7 9.7 0 1 0 19.4 0 a9.7 9.7 0 1 0 -19.4 0zM1002.95 2284.79 a9.7 9.7 0 1 0 19.4 0 a9.7 9.7 0 1 0 -19.4 0zM1002.95 2381.79 a9.7 9.7 0 1 0 19.4 0 a9.7 9.7 0 1 0 -19.4 0zM918.94 2430.29 a9.7 9.7 0 1 0 19.4 0 a9.7 9.7 0 1 0 -19.4 0zM1086.95 781.29 a9.7 9.7 0 1 0 19.4 0 a9.7 9.7 0 1 0 -19.4 0zM1170.96 829.79 a9.7 9.7 0 1 0 19.4 0 a9.7 9.7 0 1 0 -19.4 0zM1170.96 926.79 a9.7 9.7 0 1 0 19.4 0 a9.7 9.7 0 1 0 -19.4 0zM1086.95 975.29 a9.7 9.7 0 1 0 19.4 0 a9.7 9.7 0 1 0 -19.4 0zM1002.95 926.79 a9.7 9.7 0 1 0 19.4 0 a9.7 9.7 0 1 0 -19.4 0zM1002.95 829.79 a9.7 9.7 0 1 0 19.4 0 a9.7 9.7 0 1 0 -19.4 0zM1254.97 2527.29 a9.7 9.7 0 1 0 19.4 0 a9.7 9.7 0 1 0 -19.4 0zM1338.97 2575.79 a9.7 9.7 0 1 0 19.4 0 a9.7 9.7 0 1 0 -19.4 0zM1338.97 2672.79 a9.7 9.7 0 1 0 19.4 0 a9.7 9.7 0 1 0 -19.4 0zM1254.97 2721.29 a9.7 9.7 0 1 0 19.4 0 a9.7 9.7 0 1 0 -19.4 0zM1170.96 2672.79 a9.7 9.7 0 1 0 19.4 0 a9.7 9.7 0 1 0 -19.4 0zM1170.96 2575.79 a9.7 9.7 0 1 0 19.4 0 a9.7 9.7 0 1 0 -19.4 0zM1422.98 2721.29 a9.7 9.7 0 1 0 19.4 0 a9.7 9.7 0 1 0 -19.4 0zM1422.98 2818.29 a9.7 9.7 0 1 0 19.4 0 a9.7 9.7 0 1 0 -19.4 0zM1338.97 2866.79 a9.7 9.7 0 1 0 19.4 0 a9.7 9.7 0 1 0 -19.4 0zM1254.97 2818.29 a9.7 9.7 0 1 0 19.4 0 a9.7 9.7 0 1 0 -19.4 0zM1506.99 635.79 a9.7 9.7 0 1 0 19.4 0 a9.7 9.7 0 1 0 -19.4 0zM1590.99 684.29 a9.7 9.7 0 1 0 19.4 0 a9.7 9.7 0 1 0 -19.4 0zM1590.99 781.29 a9.7 9.7 0 1 0 19.4 0 a9.7 9.7 0 1 0 -19.4 0zM1506.99 829.79 a9.7 9.7 0 1 0 19.4 0 a9.7 9.7 0 1 0 -19.4 0zM1422.98 781.29 a9.7 9.7 0 1 0 19.4 0 a9.7 9.7 0 1 0 -19.4 0zM1422.98 684.29 a9.7 9.7 0 1 0 19.4 0 a9.7 9.7 0 1 0 -19.4 0zM1506.99 926.79 a9.7 9.7 0 1 0 19.4 0 a9.7 9.7 0 1 0 -19.4 0zM1422.98 975.29 a9.7 9.7 0 1 0 19.4 0 a9.7 9.7 0 1 0 -19.4 0zM1338.97 926.79 a9.7 9.7 0 1 0 19.4 0 a9.7 9.7 0 1 0 -19.4 0zM1338.97 829.79 a9.7 9.7 0 1 0 19.4 0 a9.7 9.7 0 1 0 -19.4 0zM1590.99 975.29 a9.7 9.7 0 1 0 19.4 0 a9.7 9.7 0 1 0 -19.4 0zM1590.99 1072.29 a9.7 9.7 0 1 0 19.4 0 a9.7 9.7 0 1 0 -19.4 0zM1506.99 1120.79 a9.7 9.7 0 1 0 19.4 0 a9.7 9.7 0 1 0 -19.4 0zM1422.98 1072.29 a9.7 9.7 0 1 0 19.4 0 a9.7 9.7 0 1 0 -19.4 0z" fill="rgba(13, 66, 150, 1)"></path><path d="M17.64 -16.46L60.94 8.54L60.94 58.54L17.64 83.54L-25.66 58.54L-25.66 8.54zM17.64 133.54L60.94 158.54L60.94 208.54L17.64 233.54L-25.66 208.54L-25.66 158.54zM60.94 358.54L104.25 383.54L104.25 433.54L60.94 458.54L17.64 433.54L17.64 383.54zM17.64 433.54L60.94 458.54L60.94 508.54L17.64 533.54L-25.66 508.54L-25.66 458.54zM60.94 658.54L104.25 683.54L104.25 733.54L60.94 758.54L17.64 733.54L17.64 683.54zM17.64 883.54L60.94 908.54L60.94 958.54L17.64 983.54L-25.66 958.54L-25.66 908.54zM60.94 958.54L104.25 983.54L104.25 1033.54L60.94 1058.54L17.64 1033.54L17.64 983.54zM17.64 1033.54L60.94 1058.54L60.94 1108.54L17.64 1133.54L-25.66 1108.54L-25.66 1058.54zM17.64 1183.54L60.94 1208.54L60.94 1258.54L17.64 1283.54L-25.66 1258.54L-25.66 1208.54zM60.94 1258.54L104.25 1283.54L104.25 1333.54L60.94 1358.54L17.64 1333.54L17.64 1283.54zM17.64 1333.54L60.94 1358.54L60.94 1408.54L17.64 1433.54L-25.66 1408.54L-25.66 1358.54zM60.94 1858.54L104.25 1883.54L104.25 1933.54L60.94 1958.54L17.64 1933.54L17.64 1883.54zM17.64 1933.54L60.94 1958.54L60.94 2008.54L17.64 2033.54L-25.66 2008.54L-25.66 1958.54zM60.94 2008.54L104.25 2033.54L104.25 2083.54L60.94 2108.54L17.64 2083.54L17.64 2033.54zM60.94 2158.54L104.25 2183.54L104.25 2233.54L60.94 2258.54L17.64 2233.54L17.64 2183.54zM17.64 2383.54L60.94 2408.54L60.94 2458.54L17.64 2483.54L-25.66 2458.54L-25.66 2408.54zM60.94 2458.54L104.25 2483.54L104.25 2533.54L60.94 2558.54L17.64 2533.54L17.64 2483.54zM17.64 2533.54L60.94 2558.54L60.94 2608.54L17.64 2633.54L-25.66 2608.54L-25.66 2558.54zM60.94 2608.54L104.25 2633.54L104.25 2683.54L60.94 2708.54L17.64 2683.54L17.64 2633.54zM17.64 2683.54L60.94 2708.54L60.94 2758.54L17.64 2783.54L-25.66 2758.54L-25.66 2708.54zM60.94 2758.54L104.25 2783.54L104.25 2833.54L60.94 2858.54L17.64 2833.54L17.64 2783.54zM104.25 133.54L147.55 158.54L147.55 208.54L104.25 233.54L60.94 208.54L60.94 158.54zM147.55 208.54L190.85 233.54L190.85 283.54L147.55 308.54L104.25 283.54L104.25 233.54zM104.25 283.54L147.55 308.54L147.55 358.54L104.25 383.54L60.94 358.54L60.94 308.54zM104.25 433.54L147.55 458.54L147.55 508.54L104.25 533.54L60.94 508.54L60.94 458.54zM147.55 508.54L190.85 533.54L190.85 583.54L147.55 608.54L104.25 583.54L104.25 533.54zM104.25 583.54L147.55 608.54L147.55 658.54L104.25 683.54L60.94 658.54L60.94 608.54zM104.25 733.54L147.55 758.54L147.55 808.54L104.25 833.54L60.94 808.54L60.94 758.54zM147.55 808.54L190.85 833.54L190.85 883.54L147.55 908.54L104.25 883.54L104.25 833.54zM104.25 883.54L147.55 908.54L147.55 958.54L104.25 983.54L60.94 958.54L60.94 908.54zM147.55 1408.54L190.85 1433.54L190.85 1483.54L147.55 1508.54L104.25 1483.54L104.25 1433.54zM104.25 1483.54L147.55 1508.54L147.55 1558.54L104.25 1583.54L60.94 1558.54L60.94 1508.54zM147.55 1558.54L190.85 1583.54L190.85 1633.54L147.55 1658.54L104.25 1633.54L104.25 1583.54zM147.55 2008.54L190.85 2033.54L190.85 2083.54L147.55 2108.54L104.25 2083.54L104.25 2033.54zM147.55 2608.54L190.85 2633.54L190.85 2683.54L147.55 2708.54L104.25 2683.54L104.25 2633.54zM104.25 2683.54L147.55 2708.54L147.55 2758.54L104.25 2783.54L60.94 2758.54L60.94 2708.54zM104.25 2833.54L147.55 2858.54L147.55 2908.54L104.25 2933.54L60.94 2908.54L60.94 2858.54zM104.25 2983.54L147.55 3008.54L147.55 3058.54L104.25 3083.54L60.94 3058.54L60.94 3008.54zM234.15 58.54L277.45 83.54L277.45 133.54L234.15 158.54L190.85 133.54L190.85 83.54zM234.15 208.54L277.45 233.54L277.45 283.54L234.15 308.54L190.85 283.54L190.85 233.54zM190.85 283.54L234.15 308.54L234.15 358.54L190.85 383.54L147.55 358.54L147.55 308.54zM234.15 358.54L277.45 383.54L277.45 433.54L234.15 458.54L190.85 433.54L190.85 383.54zM190.85 433.54L234.15 458.54L234.15 508.54L190.85 533.54L147.55 508.54L147.55 458.54zM190.85 583.54L234.15 608.54L234.15 658.54L190.85 683.54L147.55 658.54L147.55 608.54zM234.15 658.54L277.45 683.54L277.45 733.54L234.15 758.54L190.85 733.54L190.85 683.54zM190.85 733.54L234.15 758.54L234.15 808.54L190.85 833.54L147.55 808.54L147.55 758.54zM234.15 808.54L277.45 833.54L277.45 883.54L234.15 908.54L190.85 883.54L190.85 833.54zM190.85 883.54L234.15 908.54L234.15 958.54L190.85 983.54L147.55 958.54L147.55 908.54zM190.85 1033.54L234.15 1058.54L234.15 1108.54L190.85 1133.54L147.55 1108.54L147.55 1058.54zM190.85 1183.54L234.15 1208.54L234.15 1258.54L190.85 1283.54L147.55 1258.54L147.55 1208.54zM190.85 1783.54L234.15 1808.54L234.15 1858.54L190.85 1883.54L147.55 1858.54L147.55 1808.54zM190.85 1933.54L234.15 1958.54L234.15 2008.54L190.85 2033.54L147.55 2008.54L147.55 1958.54zM190.85 2233.54L234.15 2258.54L234.15 2308.54L190.85 2333.54L147.55 2308.54L147.55 2258.54zM234.15 2608.54L277.45 2633.54L277.45 2683.54L234.15 2708.54L190.85 2683.54L190.85 2633.54zM234.15 2908.54L277.45 2933.54L277.45 2983.54L234.15 3008.54L190.85 2983.54L190.85 2933.54zM320.76 58.54L364.06 83.54L364.06 133.54L320.76 158.54L277.45 133.54L277.45 83.54zM320.76 208.54L364.06 233.54L364.06 283.54L320.76 308.54L277.45 283.54L277.45 233.54zM277.45 283.54L320.76 308.54L320.76 358.54L277.45 383.54L234.15 358.54L234.15 308.54zM320.76 508.54L364.06 533.54L364.06 583.54L320.76 608.54L277.45 583.54L277.45 533.54zM277.45 583.54L320.76 608.54L320.76 658.54L277.45 683.54L234.15 658.54L234.15 608.54zM320.76 658.54L364.06 683.54L364.06 733.54L320.76 758.54L277.45 733.54L277.45 683.54zM277.45 883.54L320.76 908.54L320.76 958.54L277.45 983.54L234.15 958.54L234.15 908.54zM277.45 1183.54L320.76 1208.54L320.76 1258.54L277.45 1283.54L234.15 1258.54L234.15 1208.54zM320.76 1258.54L364.06 1283.54L364.06 1333.54L320.76 1358.54L277.45 1333.54L277.45 1283.54zM277.45 1633.54L320.76 1658.54L320.76 1708.54L277.45 1733.54L234.15 1708.54L234.15 1658.54zM277.45 1933.54L320.76 1958.54L320.76 2008.54L277.45 2033.54L234.15 2008.54L234.15 1958.54zM320.76 2158.54L364.06 2183.54L364.06 2233.54L320.76 2258.54L277.45 2233.54L277.45 2183.54zM277.45 2233.54L320.76 2258.54L320.76 2308.54L277.45 2333.54L234.15 2308.54L234.15 2258.54zM320.76 2458.54L364.06 2483.54L364.06 2533.54L320.76 2558.54L277.45 2533.54L277.45 2483.54zM277.45 2533.54L320.76 2558.54L320.76 2608.54L277.45 2633.54L234.15 2608.54L234.15 2558.54zM407.36 208.54L450.67 233.54L450.67 283.54L407.36 308.54L364.06 283.54L364.06 233.54zM364.06 583.54L407.36 608.54L407.36 658.54L364.06 683.54L320.76 658.54L320.76 608.54zM364.06 733.54L407.36 758.54L407.36 808.54L364.06 833.54L320.76 808.54L320.76 758.54zM407.36 808.54L450.67 833.54L450.67 883.54L407.36 908.54L364.06 883.54L364.06 833.54zM364.06 1033.54L407.36 1058.54L407.36 1108.54L364.06 1133.54L320.76 1108.54L320.76 1058.54zM407.36 1108.54L450.67 1133.54L450.67 1183.54L407.36 1208.54L364.06 1183.54L364.06 1133.54zM407.36 1408.54L450.67 1433.54L450.67 1483.54L407.36 1508.54L364.06 1483.54L364.06 1433.54zM364.06 1783.54L407.36 1808.54L407.36 1858.54L364.06 1883.54L320.76 1858.54L320.76 1808.54zM407.36 1858.54L450.67 1883.54L450.67 1933.54L407.36 1958.54L364.06 1933.54L364.06 1883.54zM407.36 2008.54L450.67 2033.54L450.67 2083.54L407.36 2108.54L364.06 2083.54L364.06 2033.54zM407.36 2308.54L450.67 2333.54L450.67 2383.54L407.36 2408.54L364.06 2383.54L364.06 2333.54zM364.06 2383.54L407.36 2408.54L407.36 2458.54L364.06 2483.54L320.76 2458.54L320.76 2408.54zM407.36 2608.54L450.67 2633.54L450.67 2683.54L407.36 2708.54L364.06 2683.54L364.06 2633.54zM407.36 2758.54L450.67 2783.54L450.67 2833.54L407.36 2858.54L364.06 2833.54L364.06 2783.54zM407.36 2908.54L450.67 2933.54L450.67 2983.54L407.36 3008.54L364.06 2983.54L364.06 2933.54zM364.06 2983.54L407.36 3008.54L407.36 3058.54L364.06 3083.54L320.76 3058.54L320.76 3008.54zM493.97 58.54L537.27 83.54L537.27 133.54L493.97 158.54L450.67 133.54L450.67 83.54zM493.97 208.54L537.27 233.54L537.27 283.54L493.97 308.54L450.67 283.54L450.67 233.54zM450.67 283.54L493.97 308.54L493.97 358.54L450.67 383.54L407.36 358.54L407.36 308.54zM493.97 358.54L537.27 383.54L537.27 433.54L493.97 458.54L450.67 433.54L450.67 383.54zM450.67 733.54L493.97 758.54L493.97 808.54L450.67 833.54L407.36 808.54L407.36 758.54zM493.97 958.54L537.27 983.54L537.27 1033.54L493.97 1058.54L450.67 1033.54L450.67 983.54zM450.67 1333.54L493.97 1358.54L493.97 1408.54L450.67 1433.54L407.36 1408.54L407.36 1358.54zM450.67 1483.54L493.97 1508.54L493.97 1558.54L450.67 1583.54L407.36 1558.54L407.36 1508.54zM493.97 1558.54L537.27 1583.54L537.27 1633.54L493.97 1658.54L450.67 1633.54L450.67 1583.54zM450.67 1633.54L493.97 1658.54L493.97 1708.54L450.67 1733.54L407.36 1708.54L407.36 1658.54zM493.97 1708.54L537.27 1733.54L537.27 1783.54L493.97 1808.54L450.67 1783.54L450.67 1733.54zM450.67 1783.54L493.97 1808.54L493.97 1858.54L450.67 1883.54L407.36 1858.54L407.36 1808.54zM493.97 2158.54L537.27 2183.54L537.27 2233.54L493.97 2258.54L450.67 2233.54L450.67 2183.54zM493.97 2308.54L537.27 2333.54L537.27 2383.54L493.97 2408.54L450.67 2383.54L450.67 2333.54zM493.97 2458.54L537.27 2483.54L537.27 2533.54L493.97 2558.54L450.67 2533.54L450.67 2483.54zM450.67 2533.54L493.97 2558.54L493.97 2608.54L450.67 2633.54L407.36 2608.54L407.36 2558.54zM493.97 2758.54L537.27 2783.54L537.27 2833.54L493.97 2858.54L450.67 2833.54L450.67 2783.54zM580.57 58.54L623.88 83.54L623.88 133.54L580.57 158.54L537.27 133.54L537.27 83.54zM537.27 433.54L580.57 458.54L580.57 508.54L537.27 533.54L493.97 508.54L493.97 458.54zM537.27 583.54L580.57 608.54L580.57 658.54L537.27 683.54L493.97 658.54L493.97 608.54zM580.57 658.54L623.88 683.54L623.88 733.54L580.57 758.54L537.27 733.54L537.27 683.54zM537.27 1483.54L580.57 1508.54L580.57 1558.54L537.27 1583.54L493.97 1558.54L493.97 1508.54zM580.57 1558.54L623.88 1583.54L623.88 1633.54L580.57 1658.54L537.27 1633.54L537.27 1583.54zM537.27 1783.54L580.57 1808.54L580.57 1858.54L537.27 1883.54L493.97 1858.54L493.97 1808.54zM537.27 2083.54L580.57 2108.54L580.57 2158.54L537.27 2183.54L493.97 2158.54L493.97 2108.54zM580.57 2158.54L623.88 2183.54L623.88 2233.54L580.57 2258.54L537.27 2233.54L537.27 2183.54zM537.27 2233.54L580.57 2258.54L580.57 2308.54L537.27 2333.54L493.97 2308.54L493.97 2258.54zM537.27 2533.54L580.57 2558.54L580.57 2608.54L537.27 2633.54L493.97 2608.54L493.97 2558.54zM580.57 2608.54L623.88 2633.54L623.88 2683.54L580.57 2708.54L537.27 2683.54L537.27 2633.54zM537.27 2833.54L580.57 2858.54L580.57 2908.54L537.27 2933.54L493.97 2908.54L493.97 2858.54zM667.18 58.54L710.48 83.54L710.48 133.54L667.18 158.54L623.88 133.54L623.88 83.54zM667.18 208.54L710.48 233.54L710.48 283.54L667.18 308.54L623.88 283.54L623.88 233.54zM667.18 358.54L710.48 383.54L710.48 433.54L667.18 458.54L623.88 433.54L623.88 383.54zM667.18 508.54L710.48 533.54L710.48 583.54L667.18 608.54L623.88 583.54L623.88 533.54zM667.18 658.54L710.48 683.54L710.48 733.54L667.18 758.54L623.88 733.54L623.88 683.54zM623.88 733.54L667.18 758.54L667.18 808.54L623.88 833.54L580.57 808.54L580.57 758.54zM623.88 1183.54L667.18 1208.54L667.18 1258.54L623.88 1283.54L580.57 1258.54L580.57 1208.54zM667.18 1258.54L710.48 1283.54L710.48 1333.54L667.18 1358.54L623.88 1333.54L623.88 1283.54zM623.88 1483.54L667.18 1508.54L667.18 1558.54L623.88 1583.54L580.57 1558.54L580.57 1508.54zM667.18 1558.54L710.48 1583.54L710.48 1633.54L667.18 1658.54L623.88 1633.54L623.88 1583.54zM623.88 1783.54L667.18 1808.54L667.18 1858.54L623.88 1883.54L580.57 1858.54L580.57 1808.54zM667.18 1858.54L710.48 1883.54L710.48 1933.54L667.18 1958.54L623.88 1933.54L623.88 1883.54zM623.88 1933.54L667.18 1958.54L667.18 2008.54L623.88 2033.54L580.57 2008.54L580.57 1958.54zM623.88 2233.54L667.18 2258.54L667.18 2308.54L623.88 2333.54L580.57 2308.54L580.57 2258.54zM667.18 2458.54L710.48 2483.54L710.48 2533.54L667.18 2558.54L623.88 2533.54L623.88 2483.54zM623.88 2533.54L667.18 2558.54L667.18 2608.54L623.88 2633.54L580.57 2608.54L580.57 2558.54zM667.18 2608.54L710.48 2633.54L710.48 2683.54L667.18 2708.54L623.88 2683.54L623.88 2633.54zM623.88 2683.54L667.18 2708.54L667.18 2758.54L623.88 2783.54L580.57 2758.54L580.57 2708.54zM667.18 2908.54L710.48 2933.54L710.48 2983.54L667.18 3008.54L623.88 2983.54L623.88 2933.54zM710.48 -16.46L753.78 8.54L753.78 58.54L710.48 83.54L667.18 58.54L667.18 8.54zM753.78 208.54L797.09 233.54L797.09 283.54L753.78 308.54L710.48 283.54L710.48 233.54zM753.78 358.54L797.09 383.54L797.09 433.54L753.78 458.54L710.48 433.54L710.48 383.54zM710.48 433.54L753.78 458.54L753.78 508.54L710.48 533.54L667.18 508.54L667.18 458.54zM710.48 583.54L753.78 608.54L753.78 658.54L710.48 683.54L667.18 658.54L667.18 608.54zM753.78 658.54L797.09 683.54L797.09 733.54L753.78 758.54L710.48 733.54L710.48 683.54zM753.78 958.54L797.09 983.54L797.09 1033.54L753.78 1058.54L710.48 1033.54L710.48 983.54zM753.78 1258.54L797.09 1283.54L797.09 1333.54L753.78 1358.54L710.48 1333.54L710.48 1283.54zM753.78 1408.54L797.09 1433.54L797.09 1483.54L753.78 1508.54L710.48 1483.54L710.48 1433.54zM710.48 1633.54L753.78 1658.54L753.78 1708.54L710.48 1733.54L667.18 1708.54L667.18 1658.54zM710.48 1783.54L753.78 1808.54L753.78 1858.54L710.48 1883.54L667.18 1858.54L667.18 1808.54zM753.78 1858.54L797.09 1883.54L797.09 1933.54L753.78 1958.54L710.48 1933.54L710.48 1883.54zM710.48 1933.54L753.78 1958.54L753.78 2008.54L710.48 2033.54L667.18 2008.54L667.18 1958.54zM753.78 2008.54L797.09 2033.54L797.09 2083.54L753.78 2108.54L710.48 2083.54L710.48 2033.54zM753.78 2158.54L797.09 2183.54L797.09 2233.54L753.78 2258.54L710.48 2233.54L710.48 2183.54zM710.48 2233.54L753.78 2258.54L753.78 2308.54L710.48 2333.54L667.18 2308.54L667.18 2258.54zM753.78 2458.54L797.09 2483.54L797.09 2533.54L753.78 2558.54L710.48 2533.54L710.48 2483.54zM710.48 2533.54L753.78 2558.54L753.78 2608.54L710.48 2633.54L667.18 2608.54L667.18 2558.54zM710.48 2683.54L753.78 2708.54L753.78 2758.54L710.48 2783.54L667.18 2758.54L667.18 2708.54zM753.78 2758.54L797.09 2783.54L797.09 2833.54L753.78 2858.54L710.48 2833.54L710.48 2783.54zM710.48 2833.54L753.78 2858.54L753.78 2908.54L710.48 2933.54L667.18 2908.54L667.18 2858.54zM840.39 58.54L883.69 83.54L883.69 133.54L840.39 158.54L797.09 133.54L797.09 83.54zM797.09 133.54L840.39 158.54L840.39 208.54L797.09 233.54L753.78 208.54L753.78 158.54zM840.39 358.54L883.69 383.54L883.69 433.54L840.39 458.54L797.09 433.54L797.09 383.54zM797.09 583.54L840.39 608.54L840.39 658.54L797.09 683.54L753.78 658.54L753.78 608.54zM797.09 733.54L840.39 758.54L840.39 808.54L797.09 833.54L753.78 808.54L753.78 758.54zM797.09 883.54L840.39 908.54L840.39 958.54L797.09 983.54L753.78 958.54L753.78 908.54zM840.39 958.54L883.69 983.54L883.69 1033.54L840.39 1058.54L797.09 1033.54L797.09 983.54zM797.09 1183.54L840.39 1208.54L840.39 1258.54L797.09 1283.54L753.78 1258.54L753.78 1208.54zM797.09 1483.54L840.39 1508.54L840.39 1558.54L797.09 1583.54L753.78 1558.54L753.78 1508.54zM840.39 1708.54L883.69 1733.54L883.69 1783.54L840.39 1808.54L797.09 1783.54L797.09 1733.54zM797.09 1933.54L840.39 1958.54L840.39 2008.54L797.09 2033.54L753.78 2008.54L753.78 1958.54zM840.39 2008.54L883.69 2033.54L883.69 2083.54L840.39 2108.54L797.09 2083.54L797.09 2033.54zM797.09 2233.54L840.39 2258.54L840.39 2308.54L797.09 2333.54L753.78 2308.54L753.78 2258.54zM840.39 2308.54L883.69 2333.54L883.69 2383.54L840.39 2408.54L797.09 2383.54L797.09 2333.54zM797.09 2533.54L840.39 2558.54L840.39 2608.54L797.09 2633.54L753.78 2608.54L753.78 2558.54zM797.09 2683.54L840.39 2708.54L840.39 2758.54L797.09 2783.54L753.78 2758.54L753.78 2708.54zM840.39 2908.54L883.69 2933.54L883.69 2983.54L840.39 3008.54L797.09 2983.54L797.09 2933.54zM883.69 133.54L926.99 158.54L926.99 208.54L883.69 233.54L840.39 208.54L840.39 158.54zM926.99 208.54L970.3 233.54L970.3 283.54L926.99 308.54L883.69 283.54L883.69 233.54zM883.69 433.54L926.99 458.54L926.99 508.54L883.69 533.54L840.39 508.54L840.39 458.54zM926.99 508.54L970.3 533.54L970.3 583.54L926.99 608.54L883.69 583.54L883.69 533.54zM883.69 583.54L926.99 608.54L926.99 658.54L883.69 683.54L840.39 658.54L840.39 608.54zM926.99 658.54L970.3 683.54L970.3 733.54L926.99 758.54L883.69 733.54L883.69 683.54zM926.99 808.54L970.3 833.54L970.3 883.54L926.99 908.54L883.69 883.54L883.69 833.54zM926.99 958.54L970.3 983.54L970.3 1033.54L926.99 1058.54L883.69 1033.54L883.69 983.54zM883.69 1033.54L926.99 1058.54L926.99 1108.54L883.69 1133.54L840.39 1108.54L840.39 1058.54zM926.99 1258.54L970.3 1283.54L970.3 1333.54L926.99 1358.54L883.69 1333.54L883.69 1283.54zM883.69 1333.54L926.99 1358.54L926.99 1408.54L883.69 1433.54L840.39 1408.54L840.39 1358.54zM926.99 1558.54L970.3 1583.54L970.3 1633.54L926.99 1658.54L883.69 1633.54L883.69 1583.54zM883.69 1633.54L926.99 1658.54L926.99 1708.54L883.69 1733.54L840.39 1708.54L840.39 1658.54zM883.69 1783.54L926.99 1808.54L926.99 1858.54L883.69 1883.54L840.39 1858.54L840.39 1808.54zM883.69 1933.54L926.99 1958.54L926.99 2008.54L883.69 2033.54L840.39 2008.54L840.39 1958.54zM926.99 2008.54L970.3 2033.54L970.3 2083.54L926.99 2108.54L883.69 2083.54L883.69 2033.54zM926.99 2158.54L970.3 2183.54L970.3 2233.54L926.99 2258.54L883.69 2233.54L883.69 2183.54zM926.99 2458.54L970.3 2483.54L970.3 2533.54L926.99 2558.54L883.69 2533.54L883.69 2483.54zM883.69 2533.54L926.99 2558.54L926.99 2608.54L883.69 2633.54L840.39 2608.54L840.39 2558.54zM883.69 2683.54L926.99 2708.54L926.99 2758.54L883.69 2783.54L840.39 2758.54L840.39 2708.54zM970.3 133.54L1013.6 158.54L1013.6 208.54L970.3 233.54L926.99 208.54L926.99 158.54zM1013.6 508.54L1056.9 533.54L1056.9 583.54L1013.6 608.54L970.3 583.54L970.3 533.54zM970.3 583.54L1013.6 608.54L1013.6 658.54L970.3 683.54L926.99 658.54L926.99 608.54zM1013.6 658.54L1056.9 683.54L1056.9 733.54L1013.6 758.54L970.3 733.54L970.3 683.54zM1013.6 808.54L1056.9 833.54L1056.9 883.54L1013.6 908.54L970.3 883.54L970.3 833.54zM970.3 1183.54L1013.6 1208.54L1013.6 1258.54L970.3 1283.54L926.99 1258.54L926.99 1208.54zM1013.6 1408.54L1056.9 1433.54L1056.9 1483.54L1013.6 1508.54L970.3 1483.54L970.3 1433.54zM970.3 1483.54L1013.6 1508.54L1013.6 1558.54L970.3 1583.54L926.99 1558.54L926.99 1508.54zM1013.6 1558.54L1056.9 1583.54L1056.9 1633.54L1013.6 1658.54L970.3 1633.54L970.3 1583.54zM970.3 1633.54L1013.6 1658.54L1013.6 1708.54L970.3 1733.54L926.99 1708.54L926.99 1658.54zM1013.6 1708.54L1056.9 1733.54L1056.9 1783.54L1013.6 1808.54L970.3 1783.54L970.3 1733.54zM970.3 1783.54L1013.6 1808.54L1013.6 1858.54L970.3 1883.54L926.99 1858.54L926.99 1808.54zM970.3 1933.54L1013.6 1958.54L1013.6 2008.54L970.3 2033.54L926.99 2008.54L926.99 1958.54zM1013.6 2008.54L1056.9 2033.54L1056.9 2083.54L1013.6 2108.54L970.3 2083.54L970.3 2033.54zM970.3 2383.54L1013.6 2408.54L1013.6 2458.54L970.3 2483.54L926.99 2458.54L926.99 2408.54zM1013.6 2608.54L1056.9 2633.54L1056.9 2683.54L1013.6 2708.54L970.3 2683.54L970.3 2633.54zM970.3 2683.54L1013.6 2708.54L1013.6 2758.54L970.3 2783.54L926.99 2758.54L926.99 2708.54zM1013.6 2758.54L1056.9 2783.54L1056.9 2833.54L1013.6 2858.54L970.3 2833.54L970.3 2783.54zM970.3 2833.54L1013.6 2858.54L1013.6 2908.54L970.3 2933.54L926.99 2908.54L926.99 2858.54zM970.3 2983.54L1013.6 3008.54L1013.6 3058.54L970.3 3083.54L926.99 3058.54L926.99 3008.54zM1056.9 -16.46L1100.2 8.54L1100.2 58.54L1056.9 83.54L1013.6 58.54L1013.6 8.54zM1056.9 433.54L1100.2 458.54L1100.2 508.54L1056.9 533.54L1013.6 508.54L1013.6 458.54zM1100.2 658.54L1143.51 683.54L1143.51 733.54L1100.2 758.54L1056.9 733.54L1056.9 683.54zM1056.9 883.54L1100.2 908.54L1100.2 958.54L1056.9 983.54L1013.6 958.54L1013.6 908.54zM1100.2 958.54L1143.51 983.54L1143.51 1033.54L1100.2 1058.54L1056.9 1033.54L1056.9 983.54zM1056.9 1033.54L1100.2 1058.54L1100.2 1108.54L1056.9 1133.54L1013.6 1108.54L1013.6 1058.54zM1100.2 1108.54L1143.51 1133.54L1143.51 1183.54L1100.2 1208.54L1056.9 1183.54L1056.9 1133.54zM1056.9 1333.54L1100.2 1358.54L1100.2 1408.54L1056.9 1433.54L1013.6 1408.54L1013.6 1358.54zM1100.2 1408.54L1143.51 1433.54L1143.51 1483.54L1100.2 1508.54L1056.9 1483.54L1056.9 1433.54zM1100.2 1558.54L1143.51 1583.54L1143.51 1633.54L1100.2 1658.54L1056.9 1633.54L1056.9 1583.54zM1056.9 1933.54L1100.2 1958.54L1100.2 2008.54L1056.9 2033.54L1013.6 2008.54L1013.6 1958.54zM1100.2 2308.54L1143.51 2333.54L1143.51 2383.54L1100.2 2408.54L1056.9 2383.54L1056.9 2333.54zM1056.9 2383.54L1100.2 2408.54L1100.2 2458.54L1056.9 2483.54L1013.6 2458.54L1013.6 2408.54zM1100.2 2458.54L1143.51 2483.54L1143.51 2533.54L1100.2 2558.54L1056.9 2533.54L1056.9 2483.54zM1100.2 2608.54L1143.51 2633.54L1143.51 2683.54L1100.2 2708.54L1056.9 2683.54L1056.9 2633.54zM1056.9 2983.54L1100.2 3008.54L1100.2 3058.54L1056.9 3083.54L1013.6 3058.54L1013.6 3008.54zM1186.81 658.54L1230.11 683.54L1230.11 733.54L1186.81 758.54L1143.51 733.54L1143.51 683.54zM1143.51 883.54L1186.81 908.54L1186.81 958.54L1143.51 983.54L1100.2 958.54L1100.2 908.54zM1143.51 1033.54L1186.81 1058.54L1186.81 1108.54L1143.51 1133.54L1100.2 1108.54L1100.2 1058.54zM1186.81 1108.54L1230.11 1133.54L1230.11 1183.54L1186.81 1208.54L1143.51 1183.54L1143.51 1133.54zM1143.51 1183.54L1186.81 1208.54L1186.81 1258.54L1143.51 1283.54L1100.2 1258.54L1100.2 1208.54zM1143.51 1333.54L1186.81 1358.54L1186.81 1408.54L1143.51 1433.54L1100.2 1408.54L1100.2 1358.54zM1186.81 1558.54L1230.11 1583.54L1230.11 1633.54L1186.81 1658.54L1143.51 1633.54L1143.51 1583.54zM1186.81 1708.54L1230.11 1733.54L1230.11 1783.54L1186.81 1808.54L1143.51 1783.54L1143.51 1733.54zM1186.81 1858.54L1230.11 1883.54L1230.11 1933.54L1186.81 1958.54L1143.51 1933.54L1143.51 1883.54zM1143.51 2083.54L1186.81 2108.54L1186.81 2158.54L1143.51 2183.54L1100.2 2158.54L1100.2 2108.54zM1143.51 2233.54L1186.81 2258.54L1186.81 2308.54L1143.51 2333.54L1100.2 2308.54L1100.2 2258.54zM1186.81 2458.54L1230.11 2483.54L1230.11 2533.54L1186.81 2558.54L1143.51 2533.54L1143.51 2483.54zM1186.81 2608.54L1230.11 2633.54L1230.11 2683.54L1186.81 2708.54L1143.51 2683.54L1143.51 2633.54zM1186.81 2908.54L1230.11 2933.54L1230.11 2983.54L1186.81 3008.54L1143.51 2983.54L1143.51 2933.54zM1230.11 433.54L1273.41 458.54L1273.41 508.54L1230.11 533.54L1186.81 508.54L1186.81 458.54zM1273.41 658.54L1316.72 683.54L1316.72 733.54L1273.41 758.54L1230.11 733.54L1230.11 683.54zM1273.41 808.54L1316.72 833.54L1316.72 883.54L1273.41 908.54L1230.11 883.54L1230.11 833.54zM1230.11 883.54L1273.41 908.54L1273.41 958.54L1230.11 983.54L1186.81 958.54L1186.81 908.54zM1230.11 1333.54L1273.41 1358.54L1273.41 1408.54L1230.11 1433.54L1186.81 1408.54L1186.81 1358.54zM1273.41 1558.54L1316.72 1583.54L1316.72 1633.54L1273.41 1658.54L1230.11 1633.54L1230.11 1583.54zM1230.11 1633.54L1273.41 1658.54L1273.41 1708.54L1230.11 1733.54L1186.81 1708.54L1186.81 1658.54zM1230.11 1933.54L1273.41 1958.54L1273.41 2008.54L1230.11 2033.54L1186.81 2008.54L1186.81 1958.54zM1273.41 2008.54L1316.72 2033.54L1316.72 2083.54L1273.41 2108.54L1230.11 2083.54L1230.11 2033.54zM1230.11 2083.54L1273.41 2108.54L1273.41 2158.54L1230.11 2183.54L1186.81 2158.54L1186.81 2108.54zM1230.11 2233.54L1273.41 2258.54L1273.41 2308.54L1230.11 2333.54L1186.81 2308.54L1186.81 2258.54zM1273.41 2308.54L1316.72 2333.54L1316.72 2383.54L1273.41 2408.54L1230.11 2383.54L1230.11 2333.54zM1230.11 2383.54L1273.41 2408.54L1273.41 2458.54L1230.11 2483.54L1186.81 2458.54L1186.81 2408.54zM1230.11 2833.54L1273.41 2858.54L1273.41 2908.54L1230.11 2933.54L1186.81 2908.54L1186.81 2858.54zM1360.02 208.54L1403.32 233.54L1403.32 283.54L1360.02 308.54L1316.72 283.54L1316.72 233.54zM1360.02 358.54L1403.32 383.54L1403.32 433.54L1360.02 458.54L1316.72 433.54L1316.72 383.54zM1316.72 583.54L1360.02 608.54L1360.02 658.54L1316.72 683.54L1273.41 658.54L1273.41 608.54zM1316.72 733.54L1360.02 758.54L1360.02 808.54L1316.72 833.54L1273.41 808.54L1273.41 758.54zM1360.02 808.54L1403.32 833.54L1403.32 883.54L1360.02 908.54L1316.72 883.54L1316.72 833.54zM1360.02 1558.54L1403.32 1583.54L1403.32 1633.54L1360.02 1658.54L1316.72 1633.54L1316.72 1583.54zM1316.72 1633.54L1360.02 1658.54L1360.02 1708.54L1316.72 1733.54L1273.41 1708.54L1273.41 1658.54zM1360.02 1858.54L1403.32 1883.54L1403.32 1933.54L1360.02 1958.54L1316.72 1933.54L1316.72 1883.54zM1316.72 1933.54L1360.02 1958.54L1360.02 2008.54L1316.72 2033.54L1273.41 2008.54L1273.41 1958.54zM1360.02 2458.54L1403.32 2483.54L1403.32 2533.54L1360.02 2558.54L1316.72 2533.54L1316.72 2483.54zM1316.72 2533.54L1360.02 2558.54L1360.02 2608.54L1316.72 2633.54L1273.41 2608.54L1273.41 2558.54zM1316.72 2683.54L1360.02 2708.54L1360.02 2758.54L1316.72 2783.54L1273.41 2758.54L1273.41 2708.54zM1360.02 2758.54L1403.32 2783.54L1403.32 2833.54L1360.02 2858.54L1316.72 2833.54L1316.72 2783.54zM1316.72 2833.54L1360.02 2858.54L1360.02 2908.54L1316.72 2933.54L1273.41 2908.54L1273.41 2858.54zM1360.02 2908.54L1403.32 2933.54L1403.32 2983.54L1360.02 3008.54L1316.72 2983.54L1316.72 2933.54zM1446.62 58.54L1489.93 83.54L1489.93 133.54L1446.62 158.54L1403.32 133.54L1403.32 83.54zM1446.62 358.54L1489.93 383.54L1489.93 433.54L1446.62 458.54L1403.32 433.54L1403.32 383.54zM1446.62 808.54L1489.93 833.54L1489.93 883.54L1446.62 908.54L1403.32 883.54L1403.32 833.54zM1446.62 958.54L1489.93 983.54L1489.93 1033.54L1446.62 1058.54L1403.32 1033.54L1403.32 983.54zM1403.32 1033.54L1446.62 1058.54L1446.62 1108.54L1403.32 1133.54L1360.02 1108.54L1360.02 1058.54zM1446.62 1108.54L1489.93 1133.54L1489.93 1183.54L1446.62 1208.54L1403.32 1183.54L1403.32 1133.54zM1403.32 1183.54L1446.62 1208.54L1446.62 1258.54L1403.32 1283.54L1360.02 1258.54L1360.02 1208.54zM1403.32 1483.54L1446.62 1508.54L1446.62 1558.54L1403.32 1583.54L1360.02 1558.54L1360.02 1508.54zM1446.62 1558.54L1489.93 1583.54L1489.93 1633.54L1446.62 1658.54L1403.32 1633.54L1403.32 1583.54zM1403.32 1633.54L1446.62 1658.54L1446.62 1708.54L1403.32 1733.54L1360.02 1708.54L1360.02 1658.54zM1446.62 1708.54L1489.93 1733.54L1489.93 1783.54L1446.62 1808.54L1403.32 1783.54L1403.32 1733.54zM1403.32 2083.54L1446.62 2108.54L1446.62 2158.54L1403.32 2183.54L1360.02 2158.54L1360.02 2108.54zM1446.62 2158.54L1489.93 2183.54L1489.93 2233.54L1446.62 2258.54L1403.32 2233.54L1403.32 2183.54zM1403.32 2233.54L1446.62 2258.54L1446.62 2308.54L1403.32 2333.54L1360.02 2308.54L1360.02 2258.54zM1446.62 2458.54L1489.93 2483.54L1489.93 2533.54L1446.62 2558.54L1403.32 2533.54L1403.32 2483.54zM1446.62 2608.54L1489.93 2633.54L1489.93 2683.54L1446.62 2708.54L1403.32 2683.54L1403.32 2633.54zM1403.32 2683.54L1446.62 2708.54L1446.62 2758.54L1403.32 2783.54L1360.02 2758.54L1360.02 2708.54zM1403.32 2833.54L1446.62 2858.54L1446.62 2908.54L1403.32 2933.54L1360.02 2908.54L1360.02 2858.54zM1446.62 2908.54L1489.93 2933.54L1489.93 2983.54L1446.62 3008.54L1403.32 2983.54L1403.32 2933.54z" stroke="rgba(44, 44, 84, 1)" stroke-width="2"></path></g><defs><mask id="SvgjsMask1017"><rect width="1440" height="3000" fill="#ffffff"></rect></mask></defs></svg>